<?xml version="1.0" standalone="no"?><!-- Generator: Gravit.io --><svg xmlns="http://www.w3.org/2000/svg" xmlns:xlink="http://www.w3.org/1999/xlink" style="isolation:isolate" viewBox="0 0 150 60" width="150" height="60"><defs><clipPath id="_clipPath_9RkZetAS79IObzLQUJn4JFBy43Te7o1Q"><rect width="150" height="60"/></clipPath></defs><g clip-path="url(#_clipPath_9RkZetAS79IObzLQUJn4JFBy43Te7o1Q)"><g><g><path d=" M 15.55 0.851 L 29.721 0.844 L 54.224 44.004 L 40.052 44.01 L 15.55 0.851 L 15.55 0.851 Z  M 25.881 44.017 L 40.052 44.01 L 48.22 58.397 L 34.048 58.404 L 25.881 44.017 L 25.881 44.017 Z  M 3.542 29.637 L 17.713 29.63 L 25.881 44.017 L 11.709 44.024 L 3.542 29.637 Z " fill-rule="evenodd" fill="rgb(255,107,107)"/><path d=" M 73.953 43.989 L 59.837 43.996 L 59.837 43.996 L 59.837 43.996 L 68.008 58.388 L 82.179 58.381 L 74.011 43.993 L 87.98 43.987 L 79.813 29.6 L 65.787 29.606 L 73.953 43.989 Z  M 43.446 15.207 L 57.617 15.2 L 65.788 29.593 L 51.617 29.6 L 43.446 15.207 L 43.446 15.207 L 43.446 15.207 Z  M 49.575 0.835 L 77.813 0.822 L 85.981 15.208 L 57.743 15.221 L 49.575 0.835 L 49.575 0.835 Z " fill-rule="evenodd" fill="rgb(255,107,107)"/></g><g style="opacity:0.64;"><path d=" M 57.725 15.214 L 43.57 15.221 L 43.57 15.221 L 51.744 29.619 L 65.916 29.613 L 57.749 15.227 L 71.904 15.22 L 63.729 0.822 L 49.558 0.828 L 57.725 15.214 Z  M 25.911 44.024 L 40.083 44.018 L 48.257 58.416 L 34.085 58.423 L 25.911 44.024 L 25.911 44.024 L 25.911 44.024 Z  M 31.899 29.619 L 46.07 29.613 L 54.245 44.011 L 40.073 44.018 L 31.899 29.619 L 31.899 29.619 L 31.899 29.619 Z " fill-rule="evenodd" fill="rgb(0,188,212)"/></g></g></g></svg>