<?xml version="1.0" standalone="no"?><!-- Generator: Gravit.io --><svg xmlns="http://www.w3.org/2000/svg" xmlns:xlink="http://www.w3.org/1999/xlink" style="isolation:isolate" viewBox="0 0 150 60" width="150" height="60"><defs><clipPath id="_clipPath_KXB1dz6Vj5kGcJceYzxMN9P1eqVLBqUg"><rect width="150" height="60"/></clipPath></defs><g clip-path="url(#_clipPath_KXB1dz6Vj5kGcJceYzxMN9P1eqVLBqUg)"><g><rect x="41.705" y="0.943" width="14.172" height="43.171" transform="matrix(1,0,0.568,1,-12.787,0.029)" fill="rgb(255,107,107)"/><rect x="65.577" y="0.932" width="14.172" height="57.562" transform="matrix(1,0,0.568,1,-16.864,0.042)" fill="rgb(255,107,107)"/><rect x="43.869" y="44.126" width="14.172" height="14.39" transform="matrix(1,0,0.568,1,-29.129,0.037)" fill="rgb(0,186,209)"/><rect x="67.497" y="0.931" width="14.172" height="14.39" transform="matrix(1,0,0.568,1,-4.612,0.037)" fill="rgb(84,226,210)"/><rect x="81.668" y="0.924" width="14.172" height="14.39" transform="matrix(1,0,0.568,1,-4.608,0.043)" fill="rgb(84,226,210)"/><rect x="83.832" y="29.704" width="14.172" height="14.39" transform="matrix(1,0,0.568,1,-20.943,0.052)" fill="rgb(84,226,210)"/><rect x="21.529" y="29.733" width="14.172" height="14.39" transform="matrix(1,0,0.568,1,-20.959,0.023)" fill="rgb(0,186,209)"/></g></g></svg>