<?xml version="1.0" standalone="no"?><!-- Generator: Gravit.io --><svg xmlns="http://www.w3.org/2000/svg" xmlns:xlink="http://www.w3.org/1999/xlink" style="isolation:isolate" viewBox="0 0 150 60" width="150" height="60"><defs><clipPath id="_clipPath_71e6CVFYRUB7DETcC3ELbCfxtOy6l12M"><rect width="150" height="60"/></clipPath></defs><g clip-path="url(#_clipPath_71e6CVFYRUB7DETcC3ELbCfxtOy6l12M)"><g><path d=" M 21.893 25.991 L 36.158 25.991 L 36.158 56.322 L 21.893 56.322 L 21.893 25.991 Z  M 3.349 10.825 L 17.614 10.825 L 17.614 56.322 L 3.349 56.322 L 3.349 10.825 Z  M 40.438 1.725 L 54.702 1.725 L 54.702 56.322 L 40.438 56.322 L 40.438 1.725 Z " fill="rgb(255,107,107)"/><path d=" M 21.893 18.864 L 36.158 18.864 L 36.158 41.809 L 21.893 41.809 L 21.893 18.864 Z  M 3.349 7.391 L 17.614 7.391 L 17.614 41.809 L 3.349 41.809 L 3.349 7.391 Z  M 40.438 0.507 L 54.702 0.507 L 54.702 41.809 L 40.438 41.809 L 40.438 0.507 Z " fill="rgb(255,107,107)"/><path d=" M 40.438 30.332 L 54.702 30.332 L 54.702 53.277 L 40.438 53.277 L 40.438 30.332 Z  M 21.893 18.859 L 36.158 18.859 L 36.158 53.277 L 21.893 53.277 L 21.893 18.859 Z  M 58.982 11.976 L 73.247 11.976 L 73.247 53.277 L 58.982 53.277 L 58.982 11.976 Z " fill="rgb(255,107,107)"/><path d=" M 77.611 33.377 L 91.875 33.377 L 91.875 56.322 L 77.611 56.322 L 77.611 33.377 Z  M 59.066 21.904 L 73.331 21.904 L 73.331 56.322 L 59.066 56.322 L 59.066 21.904 Z  M 96.155 15.02 L 110.419 15.02 L 110.419 56.322 L 96.155 56.322 L 96.155 15.02 Z " fill="rgb(255,107,107)"/><path d=" M 114.699 25.314 L 128.964 25.314 L 128.964 56.322 L 114.699 56.322 L 114.699 25.314 Z  M 96.155 9.81 L 110.419 9.81 L 110.419 56.322 L 96.155 56.322 L 96.155 9.81 Z  M 133.243 0.507 L 147.508 0.507 L 147.508 56.322 L 133.243 56.322 L 133.243 0.507 Z " fill="rgb(255,107,107)"/></g><g><g transform="matrix(1.004,0,0.003,0.897,2.068,30)"><text transform="matrix(1,0,0,1,0,27.985)" style="font-family:'Maven Pro';font-weight:400;font-size:29px;font-style:normal;font-variant-ligatures:none;letter-spacing:4.677165354330709;fill:#ffffff;stroke:none;">F</text></g><g transform="matrix(1.004,0.005,-0.001,0.897,20.949,30.207)"><text transform="matrix(1,0,0,1,0,27.985)" style="font-family:'Maven Pro';font-weight:400;font-size:29px;font-style:normal;font-variant-ligatures:none;letter-spacing:4.677165354330709;fill:#ffffff;stroke:none;">o</text></g><g transform="matrix(1.004,0,0.003,0.897,42.267,30.254)"><text transform="matrix(1,0,0,1,0,27.985)" style="font-family:'Maven Pro';font-weight:400;font-size:29px;font-style:normal;font-variant-ligatures:none;letter-spacing:4.677165354330709;fill:#ffffff;stroke:none;">r</text></g><g transform="matrix(1.004,0,0.003,0.897,40.857,9.347)"><text transform="matrix(1,0,0,1,0,27.985)" style="font-family:'Maven Pro';font-weight:400;font-size:29px;font-style:normal;font-variant-ligatures:none;letter-spacing:4.677165354330709;fill:#ffffff;stroke:none;">s</text></g><g transform="matrix(1.004,0,0.003,0.897,60.649,9.347)"><text transform="matrix(1,0,0,1,0,27.985)" style="font-family:'Maven Pro';font-weight:400;font-size:29px;font-style:normal;font-variant-ligatures:none;letter-spacing:4.677165354330709;fill:#ffffff;stroke:none;">t</text></g><g transform="matrix(1.004,0,0.003,0.897,58.139,30.254)"><text transform="matrix(1,0,0,1,0,27.985)" style="font-family:'Maven Pro';font-weight:400;font-size:29px;font-style:normal;font-variant-ligatures:none;letter-spacing:4.677165354330709;fill:#ffffff;stroke:none;">e</text></g><g transform="matrix(1.004,0,0.003,0.897,77.4,30.254)"><text transform="matrix(1,0,0,1,0,27.985)" style="font-family:'Maven Pro';font-weight:400;font-size:29px;font-style:normal;font-variant-ligatures:none;letter-spacing:4.677165354330709;fill:#ffffff;stroke:none;">c</text></g><g transform="matrix(1.004,0,0.003,0.897,95.487,30.254)"><text transform="matrix(1,0,0,1,0,27.985)" style="font-family:'Maven Pro';font-weight:400;font-size:29px;font-style:normal;font-variant-ligatures:none;letter-spacing:4.677165354330709;fill:#ffffff;stroke:none;">a</text></g><g transform="matrix(1.004,0,0.003,0.897,115.683,30.254)"><text transform="matrix(1,0,0,1,0,27.985)" style="font-family:'Maven Pro';font-weight:400;font-size:29px;font-style:normal;font-variant-ligatures:none;letter-spacing:4.677165354330709;fill:#ffffff;stroke:none;">s</text></g><g transform="matrix(1.004,0,0.003,0.897,135.609,30.254)"><text transform="matrix(1,0,0,1,0,27.985)" style="font-family:'Maven Pro';font-weight:400;font-size:29px;font-style:normal;font-variant-ligatures:none;letter-spacing:4.677165354330709;fill:#ffffff;stroke:none;">t</text></g><g transform="matrix(1.004,0,0.003,0.897,2.068,30.254)"><text transform="matrix(1,0,0,1,0,27.985)" style="font-family:'Maven Pro';font-weight:400;font-size:29px;font-style:normal;font-variant-ligatures:none;letter-spacing:4.677165354330709;fill:#ffffff;stroke:none;">F</text></g><g transform="matrix(1.004,0,0.003,0.897,3.574,9.347)"><text transform="matrix(1,0,0,1,0,27.985)" style="font-family:'Maven Pro';font-weight:400;font-size:29px;font-style:normal;font-variant-ligatures:none;letter-spacing:4.677165354330709;fill:#ffffff;stroke:none;">J</text></g><g transform="matrix(1.004,0,0.003,0.897,20.916,9.347)"><text transform="matrix(1,0,0,1,0,27.985)" style="font-family:'Maven Pro';font-weight:400;font-size:29px;font-style:normal;font-variant-ligatures:none;letter-spacing:4.677165354330709;fill:#ffffff;stroke:none;">u</text></g></g></g></svg>