<?xml version="1.0" standalone="no"?><!-- Generator: Gravit.io --><svg xmlns="http://www.w3.org/2000/svg" xmlns:xlink="http://www.w3.org/1999/xlink" style="isolation:isolate" viewBox="0 0 150 60" width="150" height="60"><defs><clipPath id="_clipPath_elwCqHaJJyps27n54H5cQxt3hR1oNnOo"><rect width="150" height="60"/></clipPath></defs><g clip-path="url(#_clipPath_elwCqHaJJyps27n54H5cQxt3hR1oNnOo)"><g><g transform="matrix(1.004,0,0.003,0.897,2.57,32.034)"><text transform="matrix(1,0,0,1,0,26.055)" style="font-family:'Maven Pro';font-weight:400;font-size:27px;font-style:normal;font-variant-ligatures:none;letter-spacing:4.677165354330709;fill:#00bad1;stroke:none;">F</text></g><g><path d=" M 95.649 35.755 C 93.863 35.398 86.916 28.588 92.126 16.61 C 92.322 16.134 92.493 15.658 92.713 15.205 C 93.065 14.5 93.474 13.823 93.936 13.181 L 94.499 12.515 C 94.851 12.172 95.266 11.898 95.722 11.705 L 96.016 11.61 L 96.211 11.562 C 96.456 11.467 98.095 10.848 98.241 10.752 C 98.29 10.705 99.66 4.466 101.666 4.037 C 102.375 3.895 104.43 7.109 104.234 7.109 C 104.968 7.752 110.838 8.657 110.887 8.038 C 110.545 7.966 114.067 4.323 117.711 3.656 L 117.956 3.656 C 118.029 3.68 118.103 3.775 118.152 3.728 C 118.641 3.275 121.919 8.419 120.206 12.896 C 120.084 13.205 120.402 12.634 120.206 12.896 C 120.206 13.015 120.793 13.705 121.013 14.324 C 121.58 15.665 121.815 17.117 121.698 18.563 L 121.698 18.587 L 121.772 19.277 L 121.845 20.063 C 122.028 22.337 122.134 24.616 122.163 26.897 C 122.144 27.551 122.087 28.203 121.992 28.85 C 121.817 29.779 121.521 30.684 121.111 31.541 C 120.396 32.996 119.33 34.263 118.005 35.232 C 117.149 35.875 116.219 36.422 115.265 36.851 C 111.717 38.311 107.841 38.852 104.014 38.422 C 101.629 38.156 99.302 37.529 97.116 36.565 C 96.826 36.423 96.541 36.272 96.26 36.113 C 96.04 35.994 95.869 35.803 95.649 35.755 Z " fill-rule="evenodd" fill="rgb(0,0,0)" fill-opacity="0.2"/><mask id="_mask_iri8g24GGDLfaIWYqH0ly9gsAuNgUz6U" x="-200%" y="-200%" width="400%" height="400%"><rect x="-200%" y="-200%" width="400%" height="400%" style="fill:white;"/><path d=" M 96.7 34.66 C 94.915 34.303 87.993 27.516 93.178 15.515 L 93.765 14.11 C 94.115 13.404 94.524 12.727 94.988 12.086 C 95.159 11.848 95.355 11.634 95.575 11.443 C 95.927 11.101 96.342 10.826 96.798 10.633 L 97.067 10.538 L 97.263 10.467 C 97.508 10.395 99.146 9.752 99.293 9.657 C 99.342 9.609 100.736 3.371 102.718 2.966 C 103.451 2.799 105.481 6.014 105.286 6.014 C 106.02 6.657 111.89 7.562 111.939 6.966 C 111.596 6.847 115.119 3.228 118.788 2.537 L 119.032 2.561 C 119.081 2.561 119.155 2.656 119.203 2.609 C 119.693 2.18 122.995 7.3 121.258 11.776 C 121.16 12.086 121.454 11.514 121.258 11.776 C 121.258 11.895 121.845 12.586 122.09 13.205 L 122.506 14.515 C 122.747 15.472 122.829 16.461 122.75 17.444 L 122.75 17.468 L 122.824 18.158 L 122.897 18.944 C 123.079 21.218 123.185 23.497 123.215 25.778 C 123.198 26.431 123.149 27.082 123.068 27.731 C 122.887 28.67 122.583 29.582 122.163 30.445 C 121.448 31.901 120.382 33.167 119.057 34.136 C 117.126 35.511 114.916 36.469 112.575 36.946 C 110.11 37.477 107.571 37.598 105.066 37.303 C 102.681 37.037 100.354 36.41 98.168 35.446 C 97.886 35.312 97.609 35.169 97.336 35.017 C 97.092 34.898 96.945 34.684 96.7 34.636 L 96.7 34.66 Z " fill-rule="evenodd" fill="black" stroke="none"/></mask><path d=" M 96.7 34.66 C 94.915 34.303 87.993 27.516 93.178 15.515 L 93.765 14.11 C 94.115 13.404 94.524 12.727 94.988 12.086 C 95.159 11.848 95.355 11.634 95.575 11.443 C 95.927 11.101 96.342 10.826 96.798 10.633 L 97.067 10.538 L 97.263 10.467 C 97.508 10.395 99.146 9.752 99.293 9.657 C 99.342 9.609 100.736 3.371 102.718 2.966 C 103.451 2.799 105.481 6.014 105.286 6.014 C 106.02 6.657 111.89 7.562 111.939 6.966 C 111.596 6.847 115.119 3.228 118.788 2.537 L 119.032 2.561 C 119.081 2.561 119.155 2.656 119.203 2.609 C 119.693 2.18 122.995 7.3 121.258 11.776 C 121.16 12.086 121.454 11.514 121.258 11.776 C 121.258 11.895 121.845 12.586 122.09 13.205 L 122.506 14.515 C 122.747 15.472 122.829 16.461 122.75 17.444 L 122.75 17.468 L 122.824 18.158 L 122.897 18.944 C 123.079 21.218 123.185 23.497 123.215 25.778 C 123.198 26.431 123.149 27.082 123.068 27.731 C 122.887 28.67 122.583 29.582 122.163 30.445 C 121.448 31.901 120.382 33.167 119.057 34.136 C 117.126 35.511 114.916 36.469 112.575 36.946 C 110.11 37.477 107.571 37.598 105.066 37.303 C 102.681 37.037 100.354 36.41 98.168 35.446 C 97.886 35.312 97.609 35.169 97.336 35.017 C 97.092 34.898 96.945 34.684 96.7 34.636 L 96.7 34.66 Z " fill-rule="evenodd" fill="rgb(255,255,255)" mask="url(#_mask_iri8g24GGDLfaIWYqH0ly9gsAuNgUz6U)" vector-effect="non-scaling-stroke" stroke-width="0.563" stroke="rgb(207,207,207)" stroke-linejoin="round" stroke-linecap="butt" stroke-miterlimit="1.41"/><path d=" M 93.936 28.802 C 93.936 28.802 91.833 23.468 93.447 19.849 C 93.447 19.849 94.964 12.8 97.777 11.848 C 101.739 10.562 100.712 10.371 100.859 9.609 C 100.859 9.609 101.519 6.871 102.326 5.252 C 102.326 5.252 102.962 4.014 103.5 5.371 C 104.063 6.704 104.332 7.99 105.31 8.252 C 105.31 8.252 110.985 9.395 112.257 9.038 C 112.257 9.038 115.583 5.68 116.88 4.776 C 118.176 3.895 118.665 4.466 119.326 5.752 C 119.986 7.038 120.378 11.419 119.326 12.467 C 119.326 12.467 121.258 15.515 120.916 18.325 C 120.916 18.325 121.601 25.016 121.234 27.278 C 119.277 39.28 96.162 38.041 93.936 28.802 Z " fill-rule="evenodd" fill="rgb(209,173,86)"/><path d=" M 93.667 28.85 C 93.407 28.15 93.195 27.434 93.031 26.707 C 92.646 25.1 92.506 23.448 92.616 21.801 C 92.705 21.115 92.886 20.442 93.154 19.801 L 93.154 19.777 L 93.227 19.492 L 93.325 19.134 C 93.712 17.642 94.227 16.185 94.866 14.777 C 95.177 14.136 95.546 13.522 95.967 12.943 C 96.113 12.753 96.285 12.538 96.48 12.372 C 96.804 12.058 97.186 11.808 97.605 11.634 L 97.85 11.538 L 98.021 11.491 L 98.657 11.253 L 99.097 11.086 L 99.44 10.967 L 99.733 10.848 L 99.929 10.752 L 100.345 10.514 C 100.399 10.472 100.449 10.424 100.492 10.371 C 100.525 10.338 100.55 10.297 100.565 10.252 L 100.565 9.919 L 100.541 9.705 L 100.565 9.514 L 100.663 9.205 C 101.043 7.826 101.517 6.474 102.082 5.157 L 102.106 5.085 C 102.177 4.947 102.268 4.818 102.375 4.704 C 102.447 4.637 102.53 4.581 102.62 4.537 C 102.725 4.484 102.843 4.459 102.962 4.466 L 103.084 4.49 C 103.305 4.561 103.451 4.728 103.574 4.918 L 103.598 4.99 L 103.671 5.109 L 103.72 5.252 L 103.843 5.514 L 103.965 5.895 L 104.161 6.371 L 104.258 6.633 L 104.381 6.895 L 104.479 7.085 C 104.479 7.157 104.528 7.204 104.552 7.276 C 104.699 7.514 104.894 7.752 105.139 7.919 C 107.12 8.314 109.12 8.616 111.132 8.824 L 111.621 8.824 L 112.11 8.8 L 112.599 8.324 C 112.722 8.157 112.868 8.038 113.015 7.895 C 114.13 6.828 115.272 5.788 116.439 4.776 C 116.7 4.576 116.978 4.401 117.271 4.252 C 117.476 4.15 117.702 4.093 117.932 4.085 C 118.065 4.084 118.198 4.109 118.323 4.156 C 118.616 4.276 118.812 4.49 119.008 4.728 L 119.106 4.871 L 119.228 5.061 L 119.399 5.347 C 119.628 5.758 119.793 6.199 119.888 6.657 C 120.103 7.467 120.226 8.297 120.255 9.133 C 120.269 9.989 120.187 10.843 120.011 11.681 C 119.937 11.967 119.815 12.253 119.644 12.491 L 119.766 12.681 C 119.766 12.753 119.815 12.8 119.839 12.872 C 120.317 13.758 120.694 14.692 120.965 15.658 C 121.19 16.513 121.272 17.397 121.209 18.277 L 121.209 18.325 L 121.258 18.92 L 121.307 19.634 C 121.484 21.678 121.59 23.727 121.625 25.778 C 121.613 26.255 121.581 26.732 121.527 27.207 L 121.478 27.54 C 121.298 28.378 121.019 29.193 120.647 29.969 C 120.004 31.288 119.038 32.433 117.834 33.303 C 117.1 33.874 116.244 34.351 115.388 34.732 C 112.172 36.059 108.656 36.543 105.188 36.136 C 103.025 35.899 100.913 35.337 98.926 34.47 C 98.473 34.254 98.032 34.016 97.605 33.755 C 96.311 32.981 95.221 31.92 94.426 30.66 C 94.096 30.109 93.849 29.516 93.692 28.898 L 93.667 28.85 Z  M 112.404 9.252 L 112.379 9.276 L 112.306 9.276 L 112.183 9.324 L 111.768 9.371 C 111.294 9.388 110.819 9.364 110.349 9.3 C 108.661 9.159 106.986 8.905 105.335 8.538 L 105.261 8.538 C 105.085 8.487 104.92 8.407 104.772 8.3 C 104.43 8.062 104.185 7.704 103.989 7.347 C 103.902 7.187 103.829 7.019 103.769 6.847 L 103.623 6.442 L 103.378 5.823 C 103.378 5.728 103.305 5.633 103.28 5.514 C 103.226 5.37 103.152 5.234 103.06 5.109 C 103.038 5.083 103.013 5.059 102.987 5.038 L 102.938 5.014 L 102.864 5.014 C 102.752 5.106 102.661 5.219 102.595 5.347 L 102.522 5.514 C 102.111 6.355 101.783 7.232 101.543 8.133 L 101.274 9.109 L 101.177 9.49 L 101.128 9.681 L 101.128 9.729 C 101.103 9.848 101.128 9.967 101.128 10.062 L 101.128 10.133 C 101.138 10.254 101.121 10.376 101.079 10.491 C 100.973 10.709 100.802 10.891 100.59 11.014 L 100.443 11.086 L 100.272 11.181 L 100.027 11.3 L 99.733 11.443 C 99.122 11.713 98.493 11.944 97.85 12.134 L 97.752 12.134 C 97.394 12.295 97.07 12.521 96.798 12.8 L 96.309 13.396 L 95.82 14.181 C 95.292 15.067 94.873 16.01 94.572 16.991 C 94.229 17.943 93.944 18.913 93.716 19.896 L 93.716 19.944 L 93.643 20.087 L 93.594 20.254 C 93.199 21.271 93.032 22.359 93.105 23.444 C 93.142 24.977 93.422 26.496 93.936 27.945 L 94.181 28.707 L 94.205 28.731 L 94.254 28.898 L 94.303 29.064 C 94.449 29.547 94.654 30.011 94.915 30.445 C 95.66 31.645 96.703 32.644 97.948 33.35 C 98.416 33.641 98.907 33.895 99.415 34.112 C 100.566 34.65 101.783 35.042 103.035 35.279 C 106.675 36.044 110.459 35.847 113.994 34.708 C 115.461 34.184 116.88 33.446 118.054 32.422 C 119.424 31.217 120.395 29.642 120.842 27.897 C 121.02 27.148 121.102 26.38 121.087 25.611 C 121.109 24.101 121.043 22.59 120.891 21.087 L 120.647 18.42 L 120.647 18.158 L 120.671 18.039 C 120.706 17.301 120.623 16.562 120.426 15.848 C 120.159 14.713 119.705 13.628 119.081 12.634 L 119.081 12.61 L 119.057 12.562 C 119.047 12.523 119.047 12.482 119.057 12.443 L 119.081 12.324 L 119.155 12.229 L 119.203 12.181 C 119.34 11.985 119.439 11.768 119.497 11.538 C 119.598 11.181 119.655 10.813 119.668 10.443 C 119.738 9.633 119.714 8.818 119.595 8.014 C 119.491 7.319 119.327 6.634 119.106 5.966 C 118.962 5.678 118.798 5.4 118.616 5.133 C 118.616 5.085 118.616 5.061 118.568 5.014 L 118.494 4.918 C 118.378 4.773 118.214 4.672 118.029 4.633 L 117.883 4.633 C 117.799 4.638 117.717 4.654 117.638 4.68 C 117.214 4.87 116.826 5.128 116.488 5.442 L 116.073 5.776 C 114.821 6.848 113.628 7.984 112.501 9.181 L 112.453 9.181 L 112.453 9.205 L 112.404 9.228 L 112.404 9.252 Z " fill="rgb(67,50,49)"/><path d=" M 112.624 10.181 C 112.624 10.181 114.36 6.99 117.467 5.49 C 120.598 4.014 118.372 14.658 118.372 14.658 C 118.372 14.658 117.711 15.729 116.17 14.372 C 114.654 12.991 112.819 11.372 112.624 10.181 Z " fill-rule="evenodd" fill="rgb(192,158,76)"/><path d=" M 115.119 12.324 C 115.119 12.324 115.559 10.038 116.513 9.228 C 117.491 8.466 116.757 11.562 116.709 11.61 C 116.66 11.61 116.464 12.705 115.119 12.324 Z  M 102.571 5.419 C 102.571 5.419 101.984 7.704 103.549 9.157 C 103.549 9.157 104.748 9.562 105.017 9.014 C 105.017 9.014 103.671 7.038 103.256 5.847 C 102.962 5.038 102.571 5.442 102.571 5.442 L 102.571 5.419 Z " fill-rule="evenodd" fill="rgb(183,147,60)"/><path d=" M 100.638 33.946 C 94.328 32.255 91.882 24.373 95.404 16.42 C 95.404 16.42 95.942 15.229 97.239 15.467 C 98.266 15.705 97.826 16.42 97.728 17.444 C 97.63 18.468 97.214 19.492 98.877 19.682 C 100.541 19.873 104.625 20.468 107.145 21.039 C 109.664 21.635 109.835 21.492 111.058 20.611 C 112.281 19.73 115.877 18.087 118.885 20.539 C 118.885 20.539 120.622 22.111 117.418 26.516 C 114.238 30.922 110.276 35.494 100.638 33.946 Z  M 110.912 17.753 C 110.912 17.753 110.716 16.92 109.444 15.801 C 108.221 14.682 108.563 14.61 108.563 14.61 C 108.563 14.61 107.683 12.61 106.24 14.539 C 105.286 15.777 106.069 16.729 106.117 16.92 C 106.215 17.229 106.166 18.158 106.166 18.158 C 106.166 18.158 105.212 19.896 106.802 20.063 C 108.392 20.254 111.376 19.539 110.936 17.753 L 110.912 17.753 Z  M 98.584 15.682 C 98.584 15.682 98.021 18.73 100.663 17.468 C 100.663 17.468 101.348 16.991 101.641 16.039 C 101.91 15.039 102.864 14.896 102.864 14.896 C 102.864 14.896 104.699 13.634 103.427 12.681 C 102.13 11.729 100.883 13.158 100.027 13.824 C 99.43 14.349 98.94 14.979 98.584 15.682 Z " fill-rule="evenodd" fill="rgb(216,196,132)"/><path d=" M 97.067 26.564 C 97.067 26.564 99.367 28.397 102.62 27.945 C 105.848 27.516 107.561 28.588 107.609 28.898 C 107.634 29.183 108.099 30.85 103.476 30.993 C 97.777 31.184 97.067 26.588 97.067 26.588 L 97.067 26.564 Z  M 96.358 24.397 C 96.236 24.802 95.918 25.183 95.086 25.016 C 95.086 25.016 93.276 21.397 96.04 16.372 C 96.04 16.372 97.679 14.872 97.361 17.396 C 97.043 19.92 96.774 20.015 97.19 20.087 C 97.605 20.206 98.315 19.896 98.608 20.087 C 98.853 20.23 100.883 21.23 101.348 21.825 C 101.813 22.421 101.837 23.302 101.617 24.921 C 101.372 26.516 104.43 26.588 104.43 26.588 C 104.43 26.588 97.997 27.993 96.774 25.492 C 96.593 25.144 96.454 24.776 96.358 24.397 Z  M 107.365 21.659 C 108.294 21.778 109.322 22.301 110.863 21.659 C 111.401 21.42 111.768 20.801 112.183 20.992 C 112.599 21.206 114.189 22.182 111.156 23.087 C 108.123 23.992 106.949 23.159 106.656 22.849 C 105.775 21.873 106.9 21.611 107.389 21.659 L 107.365 21.659 Z " fill-rule="evenodd" fill="rgb(201,182,123)"/><path d=" M 98.119 24.278 C 98.119 24.278 100.981 25.754 101.592 25.754 C 102.179 25.754 105.408 25.469 105.751 25.397 C 106.093 25.302 99.929 27.683 97.263 25.564 C 95.306 23.968 98.119 24.278 98.119 24.278 Z  M 102.571 22.611 L 102.815 22.682 C 103.351 22.795 103.875 22.955 104.381 23.159 C 105.457 23.587 106.484 24.111 107.487 24.683 L 107.145 24.516 C 105.86 23.867 104.507 23.356 103.109 22.992 L 102.766 22.921 L 102.522 22.873 L 102.497 22.873 L 102.4 22.706 L 102.546 22.611 L 102.571 22.611 Z  M 96.211 21.849 L 96.26 21.849 L 96.358 22.016 L 96.211 22.111 L 96.016 22.111 C 95.341 22.337 94.693 22.633 94.083 22.992 L 92.86 23.802 L 93.105 23.611 C 93.734 23.117 94.396 22.664 95.086 22.254 C 95.282 22.135 95.502 22.04 95.698 21.968 C 95.853 21.904 96.018 21.864 96.187 21.849 L 96.211 21.849 Z  M 96.333 21.587 L 96.382 21.587 L 96.505 21.73 L 96.358 21.849 L 96.285 21.849 C 96.065 21.827 95.844 21.827 95.624 21.849 L 94.719 21.992 C 93.839 22.135 93.007 22.373 92.151 22.611 L 92.444 22.492 C 93.437 22.162 94.45 21.892 95.477 21.682 C 95.722 21.635 95.967 21.587 96.211 21.587 L 96.309 21.587 L 96.333 21.587 Z  M 103.427 21.516 C 104.43 21.516 105.433 21.611 106.435 21.754 L 106.117 21.73 C 104.861 21.662 103.601 21.694 102.351 21.825 C 102.285 21.838 102.219 21.854 102.155 21.873 L 101.984 21.778 L 102.057 21.611 L 102.302 21.587 L 102.546 21.539 L 103.28 21.516 L 103.427 21.516 Z  M 106.191 20.206 L 105.873 20.23 C 104.63 20.393 103.403 20.656 102.204 21.016 L 102.008 21.087 L 101.813 21.039 L 101.861 20.873 C 102.34 20.711 102.831 20.584 103.329 20.492 L 103.941 20.396 C 104.674 20.301 105.433 20.23 106.191 20.182 L 106.191 20.206 Z  M 91.833 20.301 C 93.293 20.389 94.746 20.556 96.187 20.801 L 96.285 20.968 L 96.113 21.063 L 96.04 21.039 L 95.893 20.992 C 95.331 20.838 94.759 20.718 94.181 20.635 C 93.349 20.492 92.518 20.396 91.686 20.301 L 91.833 20.301 Z  M 92.689 17.825 C 93.769 18.505 94.814 19.236 95.82 20.015 L 96.113 20.254 L 96.333 20.468 L 96.333 20.658 L 96.138 20.658 C 96.138 20.611 96.089 20.587 96.089 20.587 C 95.698 20.172 95.273 19.79 94.817 19.444 C 94.132 18.873 93.423 18.349 92.689 17.825 Z " fill-rule="evenodd" fill="rgb(61,55,43)"/><path d=" M 96.627 24.516 C 96.798 24.278 97.312 24.254 97.679 24.254 L 98.095 24.254 C 98.095 24.254 99.905 25.207 100.956 25.588 C 99.462 25.466 97.999 25.104 96.627 24.516 Z  M 97.092 22.587 C 96.945 22.444 95.82 21.016 97.263 20.063 C 98.731 19.134 100.736 20.349 100.883 20.73 C 100.883 20.73 101.69 22.802 98.779 23.349 L 98.217 23.421 C 98.217 23.421 97.556 22.992 97.092 22.587 Z  M 106.313 18.111 C 106.313 18.111 106.362 17.158 108.123 16.539 C 109.493 16.039 110.887 17.849 110.887 17.849 C 110.887 17.849 109.909 19.515 108.197 19.206 C 106.46 18.896 106.313 18.111 106.313 18.111 Z  M 101.25 15.872 C 101.25 15.872 100.687 14.539 99.464 15.039 C 98.192 15.515 98.853 16.991 98.853 16.991 C 98.853 16.991 99.733 17.991 100.736 16.825 L 101.274 15.872 L 101.25 15.872 Z " fill-rule="evenodd" fill="rgb(0,0,0)"/><path d=" M 108.123 18.849 C 108.123 18.849 107.658 17.991 108.099 17.491 C 108.515 16.991 108.93 17.325 108.93 17.325 C 108.93 17.325 108.221 16.372 107.34 17.491 C 106.362 18.706 108.099 19.158 108.123 18.849 Z  M 99.415 16.991 C 99.415 16.991 98.804 16.015 99.538 15.801 C 99.538 15.801 99.733 15.682 99.929 15.801 C 100.1 15.92 100.076 15.324 99.587 15.396 C 99.097 15.491 98.388 16.444 99.415 16.991 Z  M 100.687 15.61 C 100.81 15.61 100.907 15.705 100.907 15.801 C 100.907 15.92 100.81 16.015 100.687 16.015 C 100.573 16.015 100.479 15.924 100.479 15.813 C 100.479 15.701 100.573 15.61 100.687 15.61 Z " fill-rule="evenodd" fill="rgb(255,255,255)"/></g><g transform="matrix(1.004,0.005,-0.001,0.897,20.949,30.207)"><text transform="matrix(1,0,0,1,0,27.985)" style="font-family:'Maven Pro';font-weight:400;font-size:29px;font-style:normal;font-variant-ligatures:none;letter-spacing:4.677165354330709;fill:#00bad1;stroke:none;">o</text></g><g transform="matrix(1.004,0,0.003,0.897,42.267,30.254)"><text transform="matrix(1,0,0,1,0,27.985)" style="font-family:'Maven Pro';font-weight:400;font-size:29px;font-style:normal;font-variant-ligatures:none;letter-spacing:4.677165354330709;fill:#00bad1;stroke:none;">r</text></g><g transform="matrix(1.004,0,0.003,0.897,42.963,1.855)"><text transform="matrix(1,0,0,1,0,27.985)" style="font-family:'Maven Pro';font-weight:400;font-size:29px;font-style:normal;font-variant-ligatures:none;letter-spacing:4.677165354330709;fill:#00bad1;stroke:none;">s</text></g><g transform="matrix(1.004,0,0.003,0.897,60.649,1.855)"><text transform="matrix(1,0,0,1,0,27.985)" style="font-family:'Maven Pro';font-weight:400;font-size:29px;font-style:normal;font-variant-ligatures:none;letter-spacing:4.677165354330709;fill:#00bad1;stroke:none;">t</text></g><g transform="matrix(1.004,0,0.003,0.897,58.139,30.254)"><text transform="matrix(1,0,0,1,0,27.985)" style="font-family:'Maven Pro';font-weight:400;font-size:29px;font-style:normal;font-variant-ligatures:none;letter-spacing:4.677165354330709;fill:#00bad1;stroke:none;">e</text></g><g transform="matrix(1.004,0,0.003,0.897,77.4,30.254)"><text transform="matrix(1,0,0,1,0,27.985)" style="font-family:'Maven Pro';font-weight:400;font-size:29px;font-style:normal;font-variant-ligatures:none;letter-spacing:4.677165354330709;fill:#00bad1;stroke:none;">c</text></g><g transform="matrix(1.004,0,0.003,0.897,95.487,30.254)"><text transform="matrix(1,0,0,1,0,27.985)" style="font-family:'Maven Pro';font-weight:400;font-size:29px;font-style:normal;font-variant-ligatures:none;letter-spacing:4.677165354330709;fill:#00bad1;stroke:none;">a</text></g><g transform="matrix(1.004,0,0.003,0.897,115.683,30.254)"><text transform="matrix(1,0,0,1,0,27.985)" style="font-family:'Maven Pro';font-weight:400;font-size:29px;font-style:normal;font-variant-ligatures:none;letter-spacing:4.677165354330709;fill:#00bad1;stroke:none;">s</text></g><g transform="matrix(1.004,0,0.003,0.897,135.609,30.254)"><text transform="matrix(1,0,0,1,0,27.985)" style="font-family:'Maven Pro';font-weight:400;font-size:29px;font-style:normal;font-variant-ligatures:none;letter-spacing:4.677165354330709;fill:#00bad1;stroke:none;">t</text></g><g transform="matrix(1.004,0,0.003,0.897,3.574,1.855)"><text transform="matrix(1,0,0,1,0,27.985)" style="font-family:'Maven Pro';font-weight:400;font-size:29px;font-style:normal;font-variant-ligatures:none;letter-spacing:4.677165354330709;fill:#00bad1;stroke:none;">J</text></g><g transform="matrix(1.004,0,0.003,0.897,21.26,1.855)"><text transform="matrix(1,0,0,1,0,27.985)" style="font-family:'Maven Pro';font-weight:400;font-size:29px;font-style:normal;font-variant-ligatures:none;letter-spacing:4.677165354330709;fill:#00bad1;stroke:none;">u</text></g></g></g></svg>