<?xml version="1.0" standalone="no"?><!-- Generator: Gravit.io --><svg xmlns="http://www.w3.org/2000/svg" xmlns:xlink="http://www.w3.org/1999/xlink" style="isolation:isolate" viewBox="0 0 150 60" width="150" height="60"><defs><clipPath id="_clipPath_kPRLsai5sMtjiy6ZjXjbLkqHELvAYCPA"><rect width="150" height="60"/></clipPath></defs><g clip-path="url(#_clipPath_kPRLsai5sMtjiy6ZjXjbLkqHELvAYCPA)"><g><path d=" M 22.046 25.991 L 36.311 25.991 L 36.311 56.322 L 22.046 56.322 L 22.046 25.991 Z  M 3.502 10.825 L 17.767 10.825 L 17.767 56.322 L 3.502 56.322 L 3.502 10.825 Z  M 40.59 1.725 L 54.855 1.725 L 54.855 56.322 L 40.59 56.322 L 40.59 1.725 Z " fill="rgb(255,107,107)"/><path d=" M 22.046 18.864 L 36.311 18.864 L 36.311 41.809 L 22.046 41.809 L 22.046 18.864 Z  M 3.502 7.391 L 17.767 7.391 L 17.767 41.809 L 3.502 41.809 L 3.502 7.391 Z  M 40.59 0.507 L 54.855 0.507 L 54.855 41.809 L 40.59 41.809 L 40.59 0.507 Z " fill="rgb(255,107,107)"/><path d=" M 40.59 30.332 L 54.855 30.332 L 54.855 53.277 L 40.59 53.277 L 40.59 30.332 Z  M 22.046 18.859 L 36.311 18.859 L 36.311 53.277 L 22.046 53.277 L 22.046 18.859 Z  M 59.135 11.976 L 73.399 11.976 L 73.399 53.277 L 59.135 53.277 L 59.135 11.976 Z " fill="rgb(255,107,107)"/><path d=" M 77.763 33.377 L 92.028 33.377 L 92.028 56.322 L 77.763 56.322 L 77.763 33.377 Z  M 59.219 21.904 L 73.484 21.904 L 73.484 56.322 L 59.219 56.322 L 59.219 21.904 Z  M 96.308 15.02 L 110.572 15.02 L 110.572 56.322 L 96.308 56.322 L 96.308 15.02 Z " fill="rgb(255,107,107)"/><path d=" M 114.852 25.314 L 129.116 25.314 L 129.116 56.322 L 114.852 56.322 L 114.852 25.314 Z  M 96.308 9.81 L 110.572 9.81 L 110.572 56.322 L 96.308 56.322 L 96.308 9.81 Z  M 133.396 0.507 L 147.661 0.507 L 147.661 56.322 L 133.396 56.322 L 133.396 0.507 Z " fill="rgb(255,107,107)"/></g><g><g transform="matrix(1.004,0,0.003,0.897,2.57,32.034)"><text transform="matrix(1,0,0,1,0,26.055)" style="font-family:'Maven Pro';font-weight:400;font-size:27px;font-style:normal;font-variant-ligatures:none;letter-spacing:4.677165354330709;fill:#00bad1;stroke:none;">F</text></g><g transform="matrix(1.004,0.005,-0.001,0.897,20.949,30.207)"><text transform="matrix(1,0,0,1,0,27.985)" style="font-family:'Maven Pro';font-weight:400;font-size:29px;font-style:normal;font-variant-ligatures:none;letter-spacing:4.677165354330709;fill:#00bad1;stroke:none;">o</text></g><g transform="matrix(1.004,0,0.003,0.897,42.267,30.254)"><text transform="matrix(1,0,0,1,0,27.985)" style="font-family:'Maven Pro';font-weight:400;font-size:29px;font-style:normal;font-variant-ligatures:none;letter-spacing:4.677165354330709;fill:#00bad1;stroke:none;">r</text></g><g transform="matrix(1.004,0,0.003,0.897,40.857,9.347)"><text transform="matrix(1,0,0,1,0,27.985)" style="font-family:'Maven Pro';font-weight:400;font-size:29px;font-style:normal;font-variant-ligatures:none;letter-spacing:4.677165354330709;fill:#00bad1;stroke:none;">s</text></g><g transform="matrix(1.004,0,0.003,0.897,60.649,9.347)"><text transform="matrix(1,0,0,1,0,27.985)" style="font-family:'Maven Pro';font-weight:400;font-size:29px;font-style:normal;font-variant-ligatures:none;letter-spacing:4.677165354330709;fill:#00bad1;stroke:none;">t</text></g><g transform="matrix(1.004,0,0.003,0.897,58.139,30.254)"><text transform="matrix(1,0,0,1,0,27.985)" style="font-family:'Maven Pro';font-weight:400;font-size:29px;font-style:normal;font-variant-ligatures:none;letter-spacing:4.677165354330709;fill:#00bad1;stroke:none;">e</text></g><g transform="matrix(1.004,0,0.003,0.897,77.4,30.254)"><text transform="matrix(1,0,0,1,0,27.985)" style="font-family:'Maven Pro';font-weight:400;font-size:29px;font-style:normal;font-variant-ligatures:none;letter-spacing:4.677165354330709;fill:#00bad1;stroke:none;">c</text></g><g transform="matrix(1.004,0,0.003,0.897,95.487,30.254)"><text transform="matrix(1,0,0,1,0,27.985)" style="font-family:'Maven Pro';font-weight:400;font-size:29px;font-style:normal;font-variant-ligatures:none;letter-spacing:4.677165354330709;fill:#00bad1;stroke:none;">a</text></g><g transform="matrix(1.004,0,0.003,0.897,115.683,30.254)"><text transform="matrix(1,0,0,1,0,27.985)" style="font-family:'Maven Pro';font-weight:400;font-size:29px;font-style:normal;font-variant-ligatures:none;letter-spacing:4.677165354330709;fill:#00bad1;stroke:none;">s</text></g><g transform="matrix(1.004,0,0.003,0.897,135.609,30.254)"><text transform="matrix(1,0,0,1,0,27.985)" style="font-family:'Maven Pro';font-weight:400;font-size:29px;font-style:normal;font-variant-ligatures:none;letter-spacing:4.677165354330709;fill:#00bad1;stroke:none;">t</text></g><g transform="matrix(1.004,0,0.003,0.897,3.574,9.347)"><text transform="matrix(1,0,0,1,0,27.985)" style="font-family:'Maven Pro';font-weight:400;font-size:29px;font-style:normal;font-variant-ligatures:none;letter-spacing:4.677165354330709;fill:#00bad1;stroke:none;">J</text></g><g transform="matrix(1.004,0,0.003,0.897,20.916,9.347)"><text transform="matrix(1,0,0,1,0,27.985)" style="font-family:'Maven Pro';font-weight:400;font-size:29px;font-style:normal;font-variant-ligatures:none;letter-spacing:4.677165354330709;fill:#00bad1;stroke:none;">u</text></g></g></g></svg>